<svg width="94" height="30" viewBox="0 0 94 30" fill="none" xmlns="http://www.w3.org/2000/svg">
<path d="M85.7818 15.7487C85.7818 11.3991 89.308 7.87434 93.6561 7.87434C89.3066 7.87434 85.7818 4.34816 85.7818 0C85.7818 4.34956 82.2556 7.87434 77.9075 7.87434C82.257 7.87434 85.7818 11.4005 85.7818 15.7487Z" fill="url(#paint0_linear_2267_6464)"/>
<path fill-rule="evenodd" clip-rule="evenodd" d="M51.5662 21.899C51.569 19.8441 52.253 17.9981 53.6197 16.3638C55.091 14.646 57.0108 13.7892 59.382 13.792C60.2207 13.792 61.1332 14.0149 62.1182 14.4566C63.145 14.8773 63.921 15.5084 64.4435 16.3485L64.4588 5.90234L67.9515 5.90792L67.9153 29.7594L64.4853 29.7539L64.4894 27.299C64.1105 27.9274 63.5755 28.4624 62.8817 28.9012C62.1684 29.2983 61.5066 29.5811 60.8978 29.7483C60.2681 29.9155 59.7219 29.9977 59.2608 29.9977C57.8133 29.9949 56.4925 29.6062 55.2971 28.8274C54.1227 28.0918 53.2018 27.0942 52.533 25.8334C51.8838 24.5739 51.562 23.263 51.5634 21.899H51.5662ZM64.4672 21.9171C64.4699 20.5114 64.0408 19.3355 63.1826 18.3909C62.3035 17.4464 61.1709 16.9727 59.786 16.9699C58.4221 16.9685 57.2992 17.438 56.4173 18.3812C55.5354 19.3662 55.0923 20.5406 55.091 21.9032C55.0896 23.2671 55.527 24.4318 56.4075 25.3973C57.2866 26.3433 58.4081 26.8156 59.7721 26.8184C61.1569 26.8198 62.2896 26.3503 63.1729 25.4071C64.0339 24.4639 64.4658 23.3006 64.4686 21.9157L64.4672 21.9171ZM21.8757 13.387L18.3495 14.4835C18.057 13.3717 17.3882 12.3421 16.3406 11.3961C15.1466 10.3039 13.5848 9.75634 11.6552 9.75355C10.1868 9.75077 8.84377 10.106 7.62612 10.8166C6.42936 11.5703 5.48338 12.5859 4.78957 13.8649C4.09576 15.1647 3.74746 16.6011 3.74468 18.174C3.6987 20.5021 4.4357 22.4971 5.95428 24.1564C7.47287 25.8157 9.35368 26.6363 11.5981 26.6196C13.5068 26.6224 15.0602 26.1431 16.257 25.179C17.4537 24.1954 18.1796 22.9583 18.4331 21.4689L10.2202 21.4564L10.2258 18.1838L22.3397 18.2019V19.4599C22.3341 22.3759 21.3853 24.8391 19.4947 26.8495C17.561 28.903 14.9376 29.9256 11.6232 29.9214C9.35786 29.9187 7.34469 29.4115 5.58369 28.4015C3.7809 27.3496 2.39885 25.9536 1.43615 24.2107C0.476241 22.4288 -0.00301845 20.4338 -0.000232061 18.2311C0.00255433 16.5746 0.309057 14.9906 0.919277 13.4817C1.4877 12.0356 2.29715 10.7887 3.34762 9.74102C5.59484 7.49936 8.37705 6.38202 11.6915 6.3862C14.3135 6.39038 16.5259 7.07026 18.3273 8.42584C20.1287 9.78142 21.3115 11.4351 21.8757 13.387ZM34.147 14.0042L34.1414 17.5917C33.8683 17.5276 33.5437 17.497 33.1662 17.4956C31.844 17.4942 30.8312 17.8592 30.1276 18.592C29.424 19.3248 29.0716 20.3739 29.0688 21.7364L29.0562 29.6972L25.5635 29.6916L25.5872 14.053L29.0172 14.0585L29.0131 16.4813C29.4547 15.6635 30.058 15.0352 30.8256 14.5963C31.5919 14.1575 32.4152 13.9373 33.2971 13.9387C33.527 13.9387 33.8112 13.961 34.147 14.0028V14.0042ZM45.1673 29.7225L48.5639 29.7281C48.5026 29.0984 48.472 28.2597 48.4734 27.2106L48.4845 19.7528C48.4859 18.6828 48.309 17.7605 47.9537 16.9831C46.9924 14.8418 45.0433 13.769 42.1065 13.7648C40.847 13.7635 39.7882 13.9613 38.9272 14.3583C37.9394 14.7763 37.1202 15.4046 36.4696 16.242C35.8608 17.0807 35.5027 17.8664 35.3968 18.6006L38.5733 19.3293C38.7015 18.5324 39.0693 17.8985 39.6781 17.4276C40.2869 16.9567 41.0518 16.7226 41.9755 16.7226C42.9396 16.724 43.7058 16.9553 44.2715 17.4178C44.7953 17.879 45.0559 18.446 45.0559 19.1175C45.0545 19.998 44.571 20.4369 43.6069 20.4369L41.6565 20.4341C40.4179 20.4327 39.2643 20.6403 38.1944 21.0582C36.1993 21.8315 35.1906 23.2149 35.167 25.2072V25.3646C35.1656 26.7076 35.656 27.8097 36.6409 28.6706C37.6259 29.5539 38.884 29.9956 40.4151 29.9984C41.297 29.9998 42.1566 29.8117 42.9967 29.4355C43.8145 29.0593 44.4874 28.4422 45.0127 27.5826C45.0113 28.5271 45.0628 29.2405 45.1673 29.7225ZM45.0196 22.8959V23.3988V23.4002C45.0182 24.5538 44.6713 25.476 43.9775 26.1671C43.2837 26.8581 42.3391 27.2022 41.1438 27.2008C40.4095 27.1994 39.8119 27.0044 39.3507 26.6157C38.8896 26.227 38.6611 25.7073 38.6611 25.0567C38.6611 24.3852 38.9773 23.8516 39.6071 23.4531C40.2368 23.077 40.9195 22.8903 41.6537 22.8903L45.0196 22.8959ZM80.8358 17.6673L80.8414 14.0798V14.0784C80.5057 14.0366 80.2215 14.0143 79.9916 14.0143C79.1097 14.0129 78.2863 14.2331 77.52 14.6719C76.7524 15.1108 76.1491 15.7391 75.7075 16.5569L75.7117 14.1341L72.2816 14.1286L72.2579 29.7672L75.7507 29.7728L75.7632 21.812C75.766 20.4495 76.1185 19.4004 76.8221 18.6676C77.5256 17.9348 78.5385 17.5698 79.8606 17.5712C80.2382 17.5726 80.5628 17.6032 80.8358 17.6673Z" fill="url(#paint1_linear_2267_6464)"/>
<defs>
<linearGradient id="paint0_linear_2267_6464" x1="77.9075" y1="7.87434" x2="93.6561" y2="7.87434" gradientUnits="userSpaceOnUse">
<stop offset="0.190221" stop-color="#FF66F0"/>
<stop offset="0.652953" stop-color="#3A99FF"/>
<stop offset="1" stop-color="#0078F9"/>
</linearGradient>
<linearGradient id="paint1_linear_2267_6464" x1="-0.000244141" y1="17.9504" x2="80.8414" y2="17.9504" gradientUnits="userSpaceOnUse">
<stop stop-color="#CFE6FF"/>
<stop offset="0.405407" stop-color="#4CA1FE"/>
<stop offset="0.813121" stop-color="#B8A6FF"/>
</linearGradient>
</defs>
</svg>
